<svg xmlns="http://www.w3.org/2000/svg" xmlns:xlink="http://www.w3.org/1999/xlink" viewBox="0 0 16 16"><defs><symbol id="b" viewBox="0 0 100 100"><path mask="url(#a)" d="M0 0h100v100H0z"/><rect x="30" y="35" rx="5" ry="5" width="10" height="15"/><rect x="60" y="35" rx="5" ry="5" width="10" height="15"/></symbol><mask id="a" maskUnits="userSpaceOnUse" x="0" y="0" width="100" height="100"><rect rx="25" ry="25" width="100" height="100" fill="#fff"/><rect x="15" y="30" rx="10" ry="10" width="70" height="25"/></mask><symbol id="c" viewBox="0 0 20 100"><rect y="2" rx="5" ry="5" width="20" height="70"/><use xlink:href="#b" y="78" width="20" height="20"/></symbol><symbol id="d" viewBox="0 0 68 100"><path d="M0 93V7s0-5 5-5h10s5 0 7.5 5L46 54s2 4 2 0V7s0-5 5-5h10s5 0 5 5v86s0 5-5 5H53s-5 0-7.5-5L22 46s-2-4-2 0v47s0 5-5 5H5s-5 0-5-5z"/></symbol><symbol id="e" viewBox="0 0 100 100"><use xlink:href="#c" x="2" width="20" height="100"/><use xlink:href="#d" x="30" width="68" height="100"/></symbol></defs><use xlink:href="#e" width="16" height="16"/></svg>