<?xml version="1.0" encoding="utf-8"?>
<svg xmlns="http://www.w3.org/2000/svg" xmlns:xlink="http://www.w3.org/1999/xlink" version="1.1" viewBox="0 0 16 16">
  <defs>
    <symbol id="logo" viewBox="0 0 100 100">
      <use xlink:href="#exclamation-mark" x="2" y="0" width="20" height="100" />
      <use xlink:href="#latin-capital-letter-n" x="30" y="0" width="68" height="100" />
    </symbol>

    <symbol id="exclamation-mark" viewBox="0 0 20 100">
      <rect x="0" y="2" rx="5" ry="5" width="20" height="70" fill="black" stroke="none" />
      <path d="M 0 93 v -10 a 5 5 0 0 1 5 -5 h 10 a 5 5 0 0 1 5 5 v 10 a 5 5 0 0 1 -5 5 h -6 v -9 h 6 a 2 2 0 0 0 2 -2 v -1 a 2 2 0 0 0 -2 -2 h -10 a 2 2 0 0 0 -2 2 v 1 a 2 2 0 0 0 2 2 h 6 v 9 h -6 a 5 5 0 0 1 -5 -5 Z" fill="black" stroke="none" />
      <rect x="6" y="85" rx="1" ry="1" width="2" height="3" fill="black" stroke="none" />
      <rect x="12" y="85" rx="1" ry="1" width="2" height="3" fill="black" stroke="none" />
    </symbol>

    <symbol id="latin-capital-letter-n" viewBox="0 0 68 100">
      <path d="M 0 93 v -86 a 5 5 0 0 1 5 -5 h 10 c 0 0, 5 0, 7.5 5 l 23.5 47 c 0 0, 2 4, 2 0 v -47 a 5 5 0 0 1 5 -5 h 10 a 5 5 0 0 1 5 5 v 86 a 5 5 0 0 1 -5 5 h -10 c 0 0, -5 0, -7.5 -5 l -23.5 -47 c 0 0, -2 -4, -2 0 v 47 a 5 5 0 0 1 -5 5 h -10 a 5 5 0 0 1 -5 -5 Z" fill="black" stroke="none" />
    </symbol>
  </defs>

  <use xlink:href="#logo" x="0" y="0" width="16" height="16" />
</svg>
