<svg xmlns="http://www.w3.org/2000/svg" xmlns:xlink="http://www.w3.org/1999/xlink" viewBox="0 0 354 100"><defs><symbol id="f" viewBox="0 0 354 100"><use xlink:href="#a" x="2" width="20" height="100" fill="#E1473E"/><use xlink:href="#b" x="30" width="68" height="100" fill="#DF7D3B"/><use xlink:href="#c" x="106" width="20" height="100" fill="#E4D567"/><use xlink:href="#b" x="134" width="68" height="100" fill="#52B75B"/><use xlink:href="#d" x="210" width="68" height="100" fill="#2571B6"/><use xlink:href="#e" x="286" width="68" height="100" fill="#6F5BA6"/></symbol><symbol id="a" viewBox="0 0 20 100"><rect y="2" rx="5" ry="5" width="20" height="70"/><path d="M0 93V83a5 5 0 0 1 5-5h10a5 5 0 0 1 5 5v10a5 5 0 0 1-5 5H9v-9h6a2 2 0 0 0 2-2v-1a2 2 0 0 0-2-2H5a2 2 0 0 0-2 2v1a2 2 0 0 0 2 2h6v9H5a5 5 0 0 1-5-5z" fill="indigo"/><rect x="6" y="85" rx="1" ry="1" width="2" height="3" fill="indigo"/><rect x="12" y="85" rx="1" ry="1" width="2" height="3" fill="indigo"/></symbol><symbol id="e" viewBox="0 0 68 100"><path d="M0 93V7a5 5 0 0 1 5-5h10s5 0 7.5 5l43 86s2.5 5-2.5 5H53s-5 0-7.5-5L22 46s-2-4-2 0v47a5 5 0 0 1-5 5H5a5 5 0 0 1-5-5z"/></symbol><symbol id="c" viewBox="0 0 20 100"><rect y="2" rx="5" ry="5" width="20" height="96"/></symbol><symbol id="d" viewBox="0 0 68 100"><path d="M0 93V73a5 5 0 0 1 5-5h10a5 5 0 0 1 5 5 5 5 0 0 0 5 5h18a5 5 0 0 0 5-5V7a5 5 0 0 1 5-5h10a5 5 0 0 1 5 5v86a5 5 0 0 1-5 5H5a5 5 0 0 1-5-5z"/></symbol><symbol id="b" viewBox="0 0 68 100"><path d="M0 93V7a5 5 0 0 1 5-5h10s5 0 7.5 5L46 54s2 4 2 0V7a5 5 0 0 1 5-5h10a5 5 0 0 1 5 5v86a5 5 0 0 1-5 5H53s-5 0-7.5-5L22 46s-2-4-2 0v47a5 5 0 0 1-5 5H5a5 5 0 0 1-5-5z"/></symbol></defs><use xlink:href="#f" width="354" height="100"/></svg>