<?xml version="1.0" encoding="UTF-8" standalone="no"?>
<svg xmlns="http://www.w3.org/2000/svg" version="1.1" viewBox="0 0 356 100">
  <defs>
    <mask id="dot-mask" maskUnits="userSpaceOnUse" x="0" y="0" width="100" height="100">
      <rect x="2" y="78" rx="5" ry="5" width="20" height="20" fill="white" stroke="none" />
      <rect x="5" y="84" rx="2" ry="2" width="14" height="5" fill="black" stroke="none" />
    </mask>
  </defs>

  <rect x="2" y="2" rx="5" ry="5" width="20" height="70" fill="#808080" stroke="none" />
  <rect x="2" y="78" width="20" height="20" fill="#808080" stroke="none" mask="url(#dot-mask)" />
  <rect x="8" y="85" rx="1" ry="1" width="2" height="3" fill="#808080" stroke="none" />
  <rect x="14" y="85" rx="1" ry="1" width="2" height="3" fill="#808080" stroke="none" />

  <path d="M 30 93 V 7 C 30 7, 30 2, 35 2 H 45 C 45 2, 50 2, 52.5 7 L 76 54 C 76 54, 78 58, 78 54 V 7 C 78 7, 78 2, 83 2 H 93 C 93 2, 98 2, 98 7 V 93 C 98 93, 98 98, 93 98 H 83 C 83 98, 78 98, 75.5 93 L 52 46 C 52 46, 50 42, 50 46 V 93 C 50 93, 50 98, 45 98 H 35 C 35 98, 30 98, 30 93 Z" fill="#808080" stroke="none" />

  <rect x="106" y="2" rx="5" ry="5" width="20" height="96" fill="#808080" stroke="none" />

  <path d="M 134 93 V 7 C 134 7, 134 2, 139 2 H 149 C 149 2, 154 2, 156.5 7 L 180 54 C 180 54, 182 58, 182 54 V 7 C 182 7, 182 2, 187 2 H 197 C 197 2, 202 2, 202 7 V 93 C 202 93, 202 98, 197 98 H 187 C 187 98, 182 98, 179.5 93 L 156 46 C 156 46, 154 42, 154 46 V 93 C 154 93, 154 98, 149 98 H 139 C 139 98, 134 98, 134 93 Z" fill="#808080" stroke="none" />

  <path d="M 210 93 V 73 C 210 73, 210 68, 215 68 H 225 C 225 68, 230 68, 230 73 C 230 73, 230 78, 235 78 H 253 C 253 78, 258 78, 258 73 V 27 C 258 27, 258 22, 253 22 H 249 C 249 22, 244 22, 244 17 V 7 C 244 7, 244 2, 249 2 H 273 C 273 2, 278 2, 278 7 V 93 C 278 93, 278 98, 273 98 H 215 C 215 98, 210 98, 210 93 Z" fill="#808080" stroke="none" />

  <path d="M 286 93 V 7 C 286 7, 286 2, 291 2 H 301 C 301 2, 306 2, 308.5 7 L 351.5 93 C 351.5 93, 354 98, 349 98 H 339 C 339 98, 334 98, 331.5 93 L 308 46 C 308 46, 306 42, 306 46 V 93 C 306 93, 306 98, 301 98 H 291 C 291 98, 286 98, 286 93 Z" fill="#808080" stroke="none" />
</svg>
