<?xml version="1.0" encoding="UTF-8" standalone="no"?>
<svg xmlns="http://www.w3.org/2000/svg" version="1.1" viewBox="0 0 100 100">
  <defs>
    <mask id="dot-mask" maskUnits="userSpaceOnUse" x="0" y="0" width="100" height="100">
      <rect x="2" y="78" rx="5" ry="5" width="20" height="20" fill="white" stroke="none" />
      <rect x="5" y="84" rx="2" ry="2" width="14" height="5" fill="black" stroke="none" />
    </mask>
  </defs>

  <rect x="2" y="2" rx="5" ry="5" width="20" height="70" fill="#808080" stroke="none" />
  <rect x="2" y="78" width="20" height="20" fill="#808080" stroke="none" mask="url(#dot-mask)" />
  <rect x="8" y="85" rx="1" ry="1" width="2" height="3" fill="#808080" stroke="none" />
  <rect x="14" y="85" rx="1" ry="1" width="2" height="3" fill="#808080" stroke="none" />

  <path d="M 30 93 V 7 C 30 7, 30 2, 35 2 H 45 C 45 2, 50 2, 52.5 7 L 76 54 C 76 54, 78 58, 78 54 V 7 C 78 7, 78 2, 83 2 H 93 C 93 2, 98 2, 98 7 V 93 C 98 93, 98 98, 93 98 H 83 C 83 98, 78 98, 75.5 93 L 52 46 C 52 46, 50 42, 50 46 V 93 C 50 93, 50 98, 45 98 H 35 C 35 98, 30 98, 30 93 Z" fill="#808080" stroke="none" />
</svg>
