<svg xmlns="http://www.w3.org/2000/svg" xmlns:xlink="http://www.w3.org/1999/xlink" viewBox="0 0 354 100"><defs><symbol id="b" viewBox="0 0 100 100"><path fill="indigo" mask="url(#a)" d="M0 0h100v100H0z"/><rect x="30" y="35" rx="5" ry="5" width="10" height="15" fill="indigo"/><rect x="60" y="35" rx="5" ry="5" width="10" height="15" fill="indigo"/></symbol><mask id="a" maskUnits="userSpaceOnUse" x="0" y="0" width="100" height="100"><rect rx="25" ry="25" width="100" height="100" fill="#fff"/><rect x="15" y="30" rx="10" ry="10" width="70" height="25"/></mask><symbol id="c" viewBox="0 0 20 100"><rect y="2" rx="5" ry="5" width="20" height="70" fill="indigo"/><use xlink:href="#b" y="78" width="20" height="20"/></symbol><symbol id="g" viewBox="0 0 68 100"><path d="M0 93V7s0-5 5-5h10s5 0 7.5 5l43 86s2.5 5-2.5 5H53s-5 0-7.5-5L22 46s-2-4-2 0v47s0 5-5 5H5s-5 0-5-5z" fill="indigo"/></symbol><symbol id="e" viewBox="0 0 20 100"><rect y="2" rx="5" ry="5" width="20" height="96" fill="indigo"/></symbol><symbol id="f" viewBox="0 0 68 100"><path d="M0 93V73s0-5 5-5h10s5 0 5 5c0 0 0 5 5 5h18s5 0 5-5V27s0-5-5-5h-4s-5 0-5-5V7s0-5 5-5h24s5 0 5 5v86s0 5-5 5H5s-5 0-5-5z" fill="indigo"/></symbol><symbol id="d" viewBox="0 0 68 100"><path d="M0 93V7s0-5 5-5h10s5 0 7.5 5L46 54s2 4 2 0V7s0-5 5-5h10s5 0 5 5v86s0 5-5 5H53s-5 0-7.5-5L22 46s-2-4-2 0v47s0 5-5 5H5s-5 0-5-5z" fill="indigo"/></symbol></defs><use xlink:href="#c" x="2" width="20" height="100"/><use xlink:href="#d" x="30" width="68" height="100"/><use xlink:href="#e" x="106" width="20" height="100"/><use xlink:href="#d" x="134" width="68" height="100"/><use xlink:href="#f" x="210" width="68" height="100"/><use xlink:href="#g" x="286" width="68" height="100"/></svg>