<?xml version="1.0" encoding="UTF-8" standalone="no"?>
<svg xmlns="http://www.w3.org/2000/svg" xmlns:xlink="http://www.w3.org/1999/xlink" version="1.1" viewBox="0 0 100 100">
  <defs>
    <symbol id="dot" viewBox="0 0 100 100">
      <rect x="0" y="0" rx="25" ry="25" width="100" height="100" fill="white" stroke="none" />
      <rect x="15" y="30" rx="10" ry="10" width="70" height="25" fill="#4B0082" stroke="none" />
      <rect x="30" y="35" rx="5" ry="5" width="10" height="15" fill="white" stroke="none" />
      <rect x="60" y="35" rx="5" ry="5" width="10" height="15" fill="white" stroke="none" />
    </symbol>

    <symbol id="exclamation-char" viewBox="0 0 20 100">
      <rect x="0" y="2" rx="5" ry="5" width="20" height="70" fill="white" stroke="none" />
      <use xlink:href="#dot" x="0" y="78" width="20" height="20" />
    </symbol>

    <symbol id="n-char" viewBox="0 0 68 100">
      <path d="M 0 93 V 7 C 0 7, 0 2, 5 2 H 15 C 15 2, 20 2, 22.5 7 L 46 54 C 46 54, 48 58, 48 54 V 7 C 48 7, 48 2, 53 2 H 63 C 63 2, 68 2, 68 7 V 93 C 68 93, 68 98, 63 98 H 53 C 53 98, 48 98, 45.5 93 L 22 46 C 22 46, 20 42, 20 46 V 93 C 20 93, 20 98, 15 98 H 5 C 5 98, 0 98, 0 93 Z" fill="white" stroke="none" />
    </symbol>
  </defs>

  <use xlink:href="#exclamation-char" x="2" y="0" width="20" height="100" />
  <use xlink:href="#n-char" x="30" y="0" width="68" height="100" />
</svg>
