<?xml version="1.0" encoding="utf-8"?>
<svg xmlns="http://www.w3.org/2000/svg" xmlns:xlink="http://www.w3.org/1999/xlink" version="1.1" viewBox="0 0 100 100">
  <defs>
    <symbol id="logo" viewBox="0 0 100 100">
      <rect x="1" y="1" rx="25" ry="25" width="98" height="98" fill="white" stroke="none" />
      <g mask="url(#logo-mask)">
        <rect x="0" y="0" width="100" height="100" fill="#6F5BA6" stroke="none" />
        <rect x="66.64" y="0" width="16.66" height="100" fill="#2571B6" stroke="none" />
        <rect x="49.98" y="0" width="16.66" height="100" fill="#52B75B" stroke="none" />
        <rect x="33.32" y="0" width="16.66" height="100" fill="#E4D567" stroke="none" />
        <rect x="16.66" y="0" width="16.66" height="100" fill="#DF7D3B" stroke="none" />
        <rect x="0" y="0" width="16.66" height="100" fill="#E1473E" stroke="none" />
      </g>
      <rect x="30" y="35" rx="5" ry="5" width="10" height="15" fill="#4B0082" stroke="none" />
      <rect x="60" y="35" rx="5" ry="5" width="10" height="15" fill="#4B0082" stroke="none" />
    </symbol>

    <mask id="logo-mask" maskUnits="userSpaceOnUse" x="0" y="0" width="100" height="100">
      <path d="M 0 75 v -50 a 25 25 0 0 1 25 -25 h 50 a 25 25 0 0 1 25 25 v 50 a 25 25 0 0 1 -25 25 h -26 v -45 h 26 a 10 10 0 0 0 10 -10 v -5 a 10 10 0 0 0 -10 -10 h -50 a 10 10 0 0 0 -10 10 v 5 a 10 10 0 0 0 10 10 h 26 v 45 h -26 a 25 25 0 0 1 -25 -25 Z" fill="white" stroke="none" />
    </mask>
  </defs>

  <use xlink:href="#logo" x="0" y="0" width="100" height="100" />
</svg>
