<svg xmlns="http://www.w3.org/2000/svg" xmlns:xlink="http://www.w3.org/1999/xlink" viewBox="0 0 100 100"><defs><symbol id="b" viewBox="0 0 100 100"><g mask="url(#a)"><path fill="#6F5BA6" d="M0 0h100v100H0z"/><path fill="#2571B6" d="M66.64 0H83.3v100H66.64z"/><path fill="#52B75B" d="M49.98 0h16.66v100H49.98z"/><path fill="#E4D567" d="M33.32 0h16.66v100H33.32z"/><path fill="#DF7D3B" d="M16.66 0h16.66v100H16.66z"/><path fill="#E1473E" d="M0 0h16.66v100H0z"/></g><rect x="30" y="35" rx="5" ry="5" width="10" height="15" fill="indigo"/><rect x="60" y="35" rx="5" ry="5" width="10" height="15" fill="indigo"/></symbol><mask id="a" maskUnits="userSpaceOnUse" x="0" y="0" width="100" height="100"><path d="M0 75V25A25 25 0 0 1 25 0h50a25 25 0 0 1 25 25v50a25 25 0 0 1-25 25H49V55h26a10 10 0 0 0 10-10v-5a10 10 0 0 0-10-10H25a10 10 0 0 0-10 10v5a10 10 0 0 0 10 10h26v45H25A25 25 0 0 1 0 75z" fill="#fff"/></mask></defs><use xlink:href="#b" width="100" height="100"/></svg>