<svg xmlns="http://www.w3.org/2000/svg" xmlns:xlink="http://www.w3.org/1999/xlink" viewBox="0 0 100 100"><defs><symbol id="a" viewBox="0 0 20 100"><rect y="2" rx="5" ry="5" width="20" height="70" fill="indigo"/><path d="M0 93V83a5 5 0 0 1 5-5h10a5 5 0 0 1 5 5v10a5 5 0 0 1-5 5H9v-9h6a2 2 0 0 0 2-2v-1a2 2 0 0 0-2-2H5a2 2 0 0 0-2 2v1a2 2 0 0 0 2 2h6v9H5a5 5 0 0 1-5-5z" fill="indigo"/><rect x="6" y="85" rx="1" ry="1" width="2" height="3" fill="indigo"/><rect x="12" y="85" rx="1" ry="1" width="2" height="3" fill="indigo"/></symbol><symbol id="b" viewBox="0 0 68 100"><path d="M0 93V7a5 5 0 0 1 5-5h10s5 0 7.5 5L46 54s2 4 2 0V7a5 5 0 0 1 5-5h10a5 5 0 0 1 5 5v86a5 5 0 0 1-5 5H53s-5 0-7.5-5L22 46s-2-4-2 0v47a5 5 0 0 1-5 5H5a5 5 0 0 1-5-5z" fill="indigo"/></symbol><symbol id="c" viewBox="0 0 100 100"><path fill="#fff" d="M0 0h100v100H0z"/><use xlink:href="#a" x="2" width="20" height="100"/><use xlink:href="#b" x="30" width="68" height="100"/></symbol></defs><use xlink:href="#c" width="100" height="100"/></svg>